<?xml version="1.0" encoding="UTF-8"?>
<svg version="1.1" xmlns="http://www.w3.org/2000/svg" width="3000" height="3000">
<path d="M0 0 C310.53 0 621.06 0 941 0 C941 280.83 941 561.66 941 851 C1312.58 851 1684.16 851 2067 851 C2067 570.17 2067 289.34 2067 0 C2374.89 0 2682.78 0 3000 0 C3000 557.04 3000 1114.08 3000 1688 C2010 1688 1020 1688 0 1688 C0 1130.96 0 573.92 0 0 Z " fill="#000000" transform="translate(0,1312)"/>
<path d="M0 0 C371.58 0 743.16 0 1126 0 C1126 278.52 1126 557.04 1126 844 C754.42 844 382.84 844 0 844 C0 565.48 0 286.96 0 0 Z " fill="#000000" transform="translate(937,0)"/>
</svg>
